<?xml version="1.0" encoding="UTF-8"?>
<!DOCTYPE svg PUBLIC "-//W3C//DTD SVG 1.1//EN" "http://www.w3.org/Graphics/SVG/1.1/DTD/svg11.dtd">
<!-- Creator: CorelDRAW 2017 -->
<svg xmlns="http://www.w3.org/2000/svg" xml:space="preserve" width="200px" height="250px" version="1.1" style="shape-rendering:geometricPrecision; text-rendering:geometricPrecision; image-rendering:optimizeQuality; fill-rule:evenodd; clip-rule:evenodd"
viewBox="0 0 200 250"
 xmlns:xlink="http://www.w3.org/1999/xlink">
 <defs>
  <style type="text/css">
   <![CDATA[
    .str0 {stroke:#325EA1;stroke-width:16;stroke-miterlimit:22.9256}
    .fil2 {fill:none}
    .fil1 {fill:#C4B351}
    .fil0 {fill:url(#id0)}
   ]]>
  </style>
  <linearGradient id="id0" gradientUnits="userSpaceOnUse" x1="-38.8" y1="-29.18" x2="271.7" y2="255.63">
   <stop offset="0" style="stop-opacity:1; stop-color:#325EA1"/>
   <stop offset="0.870588" style="stop-opacity:1; stop-color:#98AED0"/>
   <stop offset="1" style="stop-opacity:1; stop-color:white"/>
  </linearGradient>
 </defs>
 <g id="Слой_x0020_1">
  <metadata id="CorelCorpID_0Corel-Layer"/>
  <path class="fil0" d="M66.24 68.26c2.57,1.04 5.56,2.74 6.01,5l-0.13 44.43 -17.48 0 0 8.41 17.46 -0.17 -0.11 36.98c-0.25,1.79 -1.01,3.01 -2.34,3.57l24.15 0c-1.54,-0.67 -2.52,-2.16 -3.14,-4.36l-0.31 -36.36 19.5 -0.18c44.16,-2.11 39.43,-64.68 0,-65.2l-55.21 0 0 7.88 11.6 0zm24.05 49.43l-0.42 -49.43 13.14 0c23.14,1.58 23.14,49.43 0,49.43l-12.72 0z"/>
  <polygon class="fil1" points="89.87,68.26 99.79,68.26 153.85,175.09 126.72,175.1 90.01,85.01 "/>
  <path class="fil1" d="M54.61 135.45l0 7.37 17.44 0 0.02 -7.37 -17.46 0zm35.89 7.37l30.36 0 -0.52 -7.37 -29.91 0 0.07 7.37z"/>
  <polygon class="fil1" points="54.52,166.48 54.52,175.42 108.68,175.42 108.68,166.48 "/>
  <path class="fil2 str0" d="M101.82 231.38c0,0 116.69,-26.98 76.4,-113.02 -14.03,-29.95 4.19,-57.09 4.19,-57.09l-15.11 -30.22c-30.87,7.63 -40.8,2.74 -65.48,-8.93 -24.67,11.67 -34.67,16.56 -65.54,8.93l-15.11 30.22c0,0 18.22,27.14 4.2,57.09 -40.3,86.04 76.45,113.02 76.45,113.02z"/>
 </g>
</svg>
