<?xml version="1.0" encoding="UTF-8"?>
<!DOCTYPE svg PUBLIC "-//W3C//DTD SVG 1.1//EN" "http://www.w3.org/Graphics/SVG/1.1/DTD/svg11.dtd">
<!-- Creator: CorelDRAW 2017 -->
<svg xmlns="http://www.w3.org/2000/svg" xml:space="preserve" width="80px" height="80px" version="1.1" style="shape-rendering:geometricPrecision; text-rendering:geometricPrecision; image-rendering:optimizeQuality; fill-rule:evenodd; clip-rule:evenodd"
viewBox="0 0 80 80"
 xmlns:xlink="http://www.w3.org/1999/xlink">
 <defs>
  <style type="text/css">
   <![CDATA[
    .str0 {stroke:white;stroke-width:2.67;stroke-miterlimit:22.9256}
    .fil0 {fill:none}
   ]]>
  </style>
 </defs>
 <g id="Слой_x0020_1">
  <metadata id="CorelCorpID_0Corel-Layer"/>
  <ellipse class="fil0 str0" cx="23.76" cy="13.53" rx="7.01" ry="8.41"/>
  <path class="fil0 str0" d="M11.91 41.63c-8.81,4.28 -8.78,10.72 -8.81,13.29 0.25,10.22 12.62,14.36 17.02,15.62 9.71,3.01 18.43,2.72 25.54,2.41 0,-4.21 -0.51,-7.81 -0.76,-12.32 -4.95,-1.55 -7.26,-2.1 -10.76,-3.91 -5.64,-1.89 -3.76,-12.83 -5.58,-19.07l-2.76 0.66 -3.68 4.59 -10.21 -1.27 0 0zm40.75 31.05c14.52,-1.54 20.87,-9.04 23.88,-13.25 3.66,-7.52 -0.09,-13.82 -3.41,-14.53l0 0c-0.09,2.69 -1.54,4.39 -3.94,4.61l-14.52 -7.51c-3.26,3.61 -6.89,5.6 -11.02,8.11 5.27,0.72 8.26,2.71 8.51,5.71l0.5 16.86zm-2.55 -37.75c-2.72,-0.38 -6.06,-0.7 -8.7,-0.36l0 0 0.74 5.33 7.96 -4.97z"/>
  <path class="fil0 str0" d="M39.65 21.87l15.52 -10.22c0.75,0.3 1.25,-8.71 -4.76,-4.5 -8.51,5.1 -16.27,10.81 -22.53,16.82 -2.75,4.11 -5.51,8.22 -8.26,12.32 -3.67,-0.2 -7.34,-0.4 -11.01,-0.6 -5.01,-0.3 -3.26,5.11 -1.01,5.41l14.52 1.8 5.69 -7.11c3.08,5.61 0.07,18.83 6.33,20.93 3.5,1.81 5.81,2.36 10.76,3.91 0.25,4.51 0.76,8.11 0.76,12.32l7 -0.27 -0.5 -16.86c-0.25,-3 -3.24,-4.99 -8.51,-5.71 4.13,-2.51 7.76,-4.5 11.02,-8.11l14.52 7.51c3.25,-0.3 4.75,-3.3 3.5,-7.81 -6.01,-3.21 -9.22,-4.92 -15.23,-8.12 -5.36,-1.48 -10.94,3.59 -15.31,6.32l-2.5 -18.03z"/>
 </g>
</svg>
