<?xml version="1.0" encoding="UTF-8"?>
<!DOCTYPE svg PUBLIC "-//W3C//DTD SVG 1.1//EN" "http://www.w3.org/Graphics/SVG/1.1/DTD/svg11.dtd">
<!-- Creator: CorelDRAW 2017 -->
<svg xmlns="http://www.w3.org/2000/svg" xml:space="preserve" width="80px" height="80px" version="1.1" style="shape-rendering:geometricPrecision; text-rendering:geometricPrecision; image-rendering:optimizeQuality; fill-rule:evenodd; clip-rule:evenodd"
viewBox="0 0 80 80"
 xmlns:xlink="http://www.w3.org/1999/xlink">
 <defs>
  <style type="text/css">
   <![CDATA[
    .str0 {stroke:#8292E2;stroke-width:2.67;stroke-miterlimit:22.9256}
    .fil0 {fill:none}
   ]]>
  </style>
 </defs>
 <g id="Слой_x0020_1">
  <metadata id="CorelCorpID_0Corel-Layer"/>
  <path class="fil0 str0" d="M3.16 61.17l30.61 -53.49c3.74,-4.97 7.56,-4.95 11.44,0.34l31.12 53.66c2.02,4.71 0.37,8.85 -5.22,9.59l-62.33 -0.17c-6.91,-0.55 -8.78,-3.86 -5.62,-9.93zm31.88 -29.74c1.17,-6.44 7.9,-5.74 8.41,0l-2.02 12.86c-1.58,2.11 -2.92,2.1 -4.04,0l-2.35 -12.86zm4.18 18.56c2.35,0 4.26,1.9 4.26,4.25 0,2.36 -1.91,4.27 -4.26,4.27 -2.36,0 -4.26,-1.91 -4.26,-4.27 0,-2.35 1.9,-4.25 4.26,-4.25z"/>
 </g>
</svg>
