<?xml version="1.0" encoding="UTF-8"?>
<!DOCTYPE svg PUBLIC "-//W3C//DTD SVG 1.1//EN" "http://www.w3.org/Graphics/SVG/1.1/DTD/svg11.dtd">
<!-- Creator: CorelDRAW 2017 -->
<svg xmlns="http://www.w3.org/2000/svg" xml:space="preserve" width="80px" height="80px" version="1.1" style="shape-rendering:geometricPrecision; text-rendering:geometricPrecision; image-rendering:optimizeQuality; fill-rule:evenodd; clip-rule:evenodd"
viewBox="0 0 80 80"
 xmlns:xlink="http://www.w3.org/1999/xlink">
 <defs>
  <style type="text/css">
   <![CDATA[
    .str0 {stroke:#10269B;stroke-width:2.67;stroke-miterlimit:22.9256}
    .fil0 {fill:none}
    .fil1 {fill:#10269B}
   ]]>
  </style>
 </defs>
 <g id="Слой_x0020_1">
  <metadata id="CorelCorpID_0Corel-Layer"/>
  <path class="fil0 str0" d="M53.53 20.88c2.9,-5.38 11.5,-4.72 15.64,1.41 2.07,6.6 -1.16,13.41 -11.09,15.72 -13.7,3.14 -27.74,2.92 -42.04,0 -8.28,-1.49 -12.19,-6.51 -12.25,-12.58 0.66,-9.27 13.74,-10.26 16.88,-4.47 2.32,2.98 0.17,5.96 8.77,7.78 4.99,0.01 10.08,0.18 15.07,-0.16 5.13,-0.33 7.61,-3.89 9.02,-7.7z"/>
  <path class="fil0 str0" d="M19.78 19.75c2.88,-14.83 8.41,-20.42 16.95,-15.51 8.62,-4.4 14.23,-0.66 17.25,15.83"/>
  <path class="fil0 str0" d="M13.67 40.67c-5.8,0.49 -7,9.66 0,11 2.5,10.59 6.6,16.98 12.08,23.13 6.01,4.1 16.28,4.27 22.23,-0.04 3.06,-3.27 4.25,-5.79 7.04,-9.93l5.31 -13.16c6.34,-1 5.13,-11.17 -0.33,-11l0.05 -3.2c-12.74,4.03 -33.37,3.59 -46.23,0.03l-0.15 3.17z"/>
  <path class="fil1" d="M51.74 39.22c0.03,0.21 0.05,0.43 0.05,0.65 0,2.24 -1.82,4.06 -4.06,4.06 -2.16,0 -3.93,-1.7 -4.04,-3.83 2.69,-0.18 5.38,-0.46 8.05,-0.88z"/>
  <path class="fil1" d="M30.23 40.01c-0.12,2.13 -1.89,3.83 -4.05,3.83 -2.24,0 -4.06,-1.81 -4.06,-4.05 0,-0.24 0.02,-0.47 0.06,-0.69 2.69,0.4 5.37,0.71 8.05,0.91z"/>
  <path class="fil0 str0" d="M14.01 53.28c8.15,-3.51 15.09,-7.82 22.55,-7.82 7.29,0 16.2,4.39 23.78,7.93"/>
  <path class="fil0 str0" d="M64.2 48.58c2.81,-0.31 5.35,3.15 7.79,8.14 1.01,2.16 1.34,3.03 2.31,3.64 1.33,1.16 0.66,3.55 -1.07,3.39 -4.91,-0.1 -9.1,-1.37 -13.58,-3.31 -0.77,-0.48 -1.51,-1.23 -1.68,-1.96l2.6 -5.57c1.73,-1.25 2.91,-2.76 3.63,-4.33l0 0z"/>
  <path class="fil0 str0" d="M67.39 63.05c0.18,1.51 0.21,3.03 0.13,4.51 0.04,1.44 0.25,2.18 0.83,3.44 0.57,1.36 -1.32,2.55 -2.65,2.11 -3.73,-1.81 -7.34,-4.52 -10.84,-8.04l0.16 -0.24 2.95 -6.35c0.17,0.73 0.91,1.48 1.68,1.96 2.61,1.13 5.12,2.03 7.74,2.61z"/>
 </g>
</svg>
