<?xml version="1.0" encoding="UTF-8"?>
<!DOCTYPE svg PUBLIC "-//W3C//DTD SVG 1.1//EN" "http://www.w3.org/Graphics/SVG/1.1/DTD/svg11.dtd">
<!-- Creator: CorelDRAW 2017 -->
<svg xmlns="http://www.w3.org/2000/svg" xml:space="preserve" width="80px" height="80px" version="1.1" style="shape-rendering:geometricPrecision; text-rendering:geometricPrecision; image-rendering:optimizeQuality; fill-rule:evenodd; clip-rule:evenodd"
viewBox="0 0 80 80"
 xmlns:xlink="http://www.w3.org/1999/xlink">
 <defs>
  <style type="text/css">
   <![CDATA[
    .str0 {stroke:white;stroke-width:2.67;stroke-miterlimit:22.9256}
    .str1 {stroke:white;stroke-width:0.67;stroke-miterlimit:22.9256}
    .fil0 {fill:none}
    .fil1 {fill:white}
   ]]>
  </style>
 </defs>
 <g id="Слой_x0020_1">
  <metadata id="CorelCorpID_0Corel-Layer"/>
  <path class="fil0 str0" d="M36.46 5.91c3.61,0.39 5.29,2.97 7.74,4.26 3.49,0.77 9.94,-0.77 10.59,1.42 2.32,5.16 -5.81,11.87 -8.13,12.65 -2.92,-0.32 -2.84,-1.03 -5.3,-1.16 -2.96,0.25 -5.8,1.8 -7.87,0.38 -1.55,-2.45 -3.22,-4.13 -3.22,-9.42 0.38,-1.03 1.29,-7.48 6.19,-8.13z"/>
  <path class="fil0 str0" d="M47.82 31.14c5.85,4.59 11.49,10.95 14.28,18.05l-0.13 0.72 -6 1.33 0.34 5 -11.67 -0.66 0.65 6.72 -2.98 4.94 -7.34 -0.66 -9.27 3.09c-0.81,-0.5 -1.57,-1.04 -2.27,-1.62 -9.04,-8.26 -7.58,-15.09 -6.33,-19.62 3.36,-8.26 7.72,-11.06 12.59,-15.68 -1.88,-0.32 -3.48,0.46 -5.17,0.97 -3.85,1.61 -3.14,-2.2 -1,-2.61 1.47,-0.29 3.54,-0.79 4.49,-0.94 -0.69,-0.73 -1.29,-1.07 -3.09,-2.08 -2.66,-0.56 -3.11,-4.37 1.54,-2.24 2.58,1.61 5.74,4.19 8.07,4.64 1.87,0.2 4.19,-0.45 6.38,-0.83 2.59,0.34 5.04,1.03 6.91,1.48z"/>
  <path class="fil1 str1" d="M37.61 53.69l0 2.15 7.05 0 0.2 2.05 -7.25 0 0 5.55 -2.91 0 0 -5.53 -1.51 0 0 -2.07 1.51 0 0 -2.15 -1.51 0 0 -2.51 1.51 0 0 -9.69 6.87 0c1.97,0 3.45,0.2 4.46,0.6 1.02,0.39 1.83,1.08 2.44,2.08 0.61,1 0.91,2.1 0.91,3.31 0,1.22 -0.22,2.23 -0.67,3.02 -0.45,0.8 -1.04,1.44 -1.79,1.91 -0.74,0.48 -1.59,0.81 -2.55,1 -0.97,0.19 -1.96,0.28 -2.99,0.28l-3.77 0zm3.77 -2.51c0.66,0 1.3,-0.05 1.91,-0.16 0.61,-0.1 1.14,-0.29 1.6,-0.58 0.45,-0.27 0.81,-0.65 1.09,-1.13 0.27,-0.47 0.4,-1.08 0.4,-1.83 0,-0.65 -0.12,-1.2 -0.37,-1.65 -0.24,-0.45 -0.58,-0.81 -1,-1.1 -0.42,-0.29 -0.92,-0.49 -1.48,-0.62 -0.57,-0.13 -1.18,-0.2 -1.84,-0.2l-4.08 0 0 7.27 3.77 0z"/>
 </g>
</svg>
