<?xml version="1.0" encoding="UTF-8"?>
<!DOCTYPE svg PUBLIC "-//W3C//DTD SVG 1.1//EN" "http://www.w3.org/Graphics/SVG/1.1/DTD/svg11.dtd">
<!-- Creator: CorelDRAW 2017 -->
<svg xmlns="http://www.w3.org/2000/svg" xml:space="preserve" width="80px" height="80px" version="1.1" style="shape-rendering:geometricPrecision; text-rendering:geometricPrecision; image-rendering:optimizeQuality; fill-rule:evenodd; clip-rule:evenodd"
viewBox="0 0 80 80"
 xmlns:xlink="http://www.w3.org/1999/xlink">
 <defs>
  <style type="text/css">
   <![CDATA[
    .str0 {stroke:white;stroke-width:2.67;stroke-miterlimit:22.9256}
    .fil0 {fill:none}
   ]]>
  </style>
 </defs>
 <g id="Слой_x0020_1">
  <metadata id="CorelCorpID_0Corel-Layer"/>
  <path class="fil0 str0" d="M24.97 67.79l0 5.79 29.66 0.05 -0.11 -5.84 -3.19 0.02c0.07,-0.92 0.08,-3.87 -3.02,-4.41l-3.85 -0.1 0 -22.22c-0.05,-0.99 -0.43,-3.05 -2.9,-3.27l0 -24.09c2.18,0.68 4.47,1.85 6.64,3.75 4.56,3.57 7.82,9 13.67,10.71 0.91,0 1.82,0.01 2.69,-0.06l-7.55 17.5 -2.34 0 0 2.36 2.03 -0.01c1.39,9.85 17.45,10.17 18.95,0l1.98 0 0 -2.3 -2.11 0 -8.31 -18.09c0.92,-0.36 1.77,-0.94 2.51,-1.86 0.48,-0.86 -1.07,-3.48 -2.67,-2.04 -0.99,0.95 -2.12,0.98 -3.43,1.07 -2.7,-0.42 -4.97,-2.34 -7.28,-4.6 -1.7,-1.66 -3.87,-3.54 -5.73,-5.3 -2.41,-1.88 -4.87,-4.02 -9.05,-4.89l0 -0.73c-0.96,-2.46 -3.21,-1.18 -3.37,-0.1 -4.82,0.1 -9.8,0.95 -15.58,2.56 -2.94,0.32 -7.81,1.71 -9.63,-2.68 -0.65,-1.66 -3.59,-1.66 -3.54,0.65 0.58,1.08 1.01,3.24 3.64,4.71l-8.43 18.35 -2.11 0.01 0 2.3 1.98 0c1.5,10.17 17.56,9.85 18.95,0l2.03 0.01 0 -2.36 -2.33 0 -7.49 -17.32c0.86,0.21 1.84,0.37 2.97,0.45 4.12,-0.43 7.88,-1.36 12.53,-2.46 1.38,-0.32 3.95,-0.74 7.01,-0.36l-0.05 24.72c-2.57,0.75 -2.63,2.19 -2.79,3.21l0 22.27 -3.85 0.05c-3.59,1.02 -3.15,3.74 -3.11,4.55l-3.42 0zm41.7 -40.02c-0.49,0.14 -0.99,0.24 -1.51,0.3l-7.55 17.55 17.37 0.04 -8.31 -17.89zm-51.64 -12.59c-0.53,-0.16 -1.01,-0.35 -1.43,-0.55l-8.41 18.09 17.37 -0.04 -7.53 -17.5z"/>
 </g>
</svg>
