<?xml version="1.0" encoding="UTF-8"?>
<!DOCTYPE svg PUBLIC "-//W3C//DTD SVG 1.1//EN" "http://www.w3.org/Graphics/SVG/1.1/DTD/svg11.dtd">
<!-- Creator: CorelDRAW 2017 -->
<svg xmlns="http://www.w3.org/2000/svg" xml:space="preserve" width="80px" height="80px" version="1.1" style="shape-rendering:geometricPrecision; text-rendering:geometricPrecision; image-rendering:optimizeQuality; fill-rule:evenodd; clip-rule:evenodd"
viewBox="0 0 80 80"
 xmlns:xlink="http://www.w3.org/1999/xlink">
 <defs>
  <style type="text/css">
   <![CDATA[
    .str0 {stroke:#8292E2;stroke-width:2.67;stroke-miterlimit:22.9256}
    .fil0 {fill:none}
   ]]>
  </style>
 </defs>
 <g id="Слой_x0020_1">
  <metadata id="CorelCorpID_0Corel-Layer"/>
  <g id="_2284842984160">
   <path class="fil0 str0" d="M72.58 30.94c-3.05,13.18 -9.35,26.03 -17.22,38.02 -4.55,5.84 -11.05,8.44 -20.47,8.44 -15.5,-0.15 -22.54,-10.07 -22.74,-26.64 -0.24,-9.46 -0.19,-19.39 0.14,-29.88 1.78,-6.99 6.52,-7.81 8.97,-3.82l0.96 24.28 -1.16 -29.19c-0.21,-5.36 9.25,-6.91 10.75,-0.82l0.81 26.76 -0.93 -30.7c1.9,-7.64 11,-4.71 11.49,-0.32l-0.81 30.69 0.73 -27.78c3.31,-3.94 9.52,-1.49 10.47,3.58l0.17 27.62c2.63,-4.52 5.59,-9.1 9.26,-13.81 3.25,-3.58 9.71,-1.78 9.58,3.57z"/>
   <path class="fil0 str0" d="M35.54 66.68c1.68,-7.48 4.07,-13.91 11.7,-18.52"/>
   <path class="fil0 str0" d="M18 44.26c5.89,-6.35 15.58,-7.49 28.26,-4.55"/>
  </g>
 </g>
</svg>
