<?xml version="1.0" encoding="UTF-8"?>
<!DOCTYPE svg PUBLIC "-//W3C//DTD SVG 1.1//EN" "http://www.w3.org/Graphics/SVG/1.1/DTD/svg11.dtd">
<!-- Creator: CorelDRAW 2017 -->
<svg xmlns="http://www.w3.org/2000/svg" xml:space="preserve" width="80px" height="80px" version="1.1" style="shape-rendering:geometricPrecision; text-rendering:geometricPrecision; image-rendering:optimizeQuality; fill-rule:evenodd; clip-rule:evenodd"
viewBox="0 0 80 80"
 xmlns:xlink="http://www.w3.org/1999/xlink">
 <defs>
  <style type="text/css">
   <![CDATA[
    .str0 {stroke:#8292E2;stroke-width:2.67;stroke-miterlimit:22.9256}
    .str1 {stroke:#8292E2;stroke-width:1.33;stroke-miterlimit:22.9256}
    .fil0 {fill:none}
   ]]>
  </style>
 </defs>
 <g id="Слой_x0020_1">
  <metadata id="CorelCorpID_0Corel-Layer"/>
  <g id="_2284842975872">
   <path class="fil0 str0" d="M12.06 7.01c-1.7,-0.42 -2.41,0.29 -2.83,1.42 -8.92,30.53 10.46,59.24 30.97,70.84 28.56,-18.1 36.23,-43.92 30.82,-70.98 -0.14,-0.71 -1.7,-2.13 -3.96,-0.57 -8.63,3.96 -15.27,4.38 -25.17,-0.28 -0.82,-0.39 -2.3,-0.57 -3.31,0.23 -10.4,4.86 -17.12,4.01 -26.52,-0.66z"/>
   <path class="fil0 str1" d="M15.31 19.31c-0.03,-1.52 0.77,-2.19 2.54,-1.83 7.17,1.91 14.18,1.14 21.07,-1.56 0.99,-0.66 1.95,-0.4 2.97,0.14 7.42,2.55 13.81,3.29 20.36,1.7 1.68,-0.72 2.66,-0.18 2.97,1.55 0.93,23.68 -9.16,38.54 -23.44,49.57 -1.02,0.91 -2.01,0.91 -3.28,0.07 -17.57,-12.37 -24.18,-32.95 -23.19,-49.64z"/>
  </g>
 </g>
</svg>
