<?xml version="1.0" encoding="UTF-8"?>
<!DOCTYPE svg PUBLIC "-//W3C//DTD SVG 1.1//EN" "http://www.w3.org/Graphics/SVG/1.1/DTD/svg11.dtd">
<!-- Creator: CorelDRAW 2017 -->
<svg xmlns="http://www.w3.org/2000/svg" xml:space="preserve" width="80px" height="80px" version="1.1" style="shape-rendering:geometricPrecision; text-rendering:geometricPrecision; image-rendering:optimizeQuality; fill-rule:evenodd; clip-rule:evenodd"
viewBox="0 0 80 80"
 xmlns:xlink="http://www.w3.org/1999/xlink">
 <defs>
  <style type="text/css">
   <![CDATA[
    .str0 {stroke:#10269B;stroke-width:2.67;stroke-miterlimit:22.9256}
    .fil0 {fill:none}
   ]]>
  </style>
 </defs>
 <g id="Слой_x0020_1">
  <metadata id="CorelCorpID_0Corel-Layer"/>
  <circle class="fil0 str0" cx="39.1" cy="26.53" r="13.64"/>
  <path class="fil0 str0" d="M60.44 43.62l9.21 24.15c1.22,2.58 0.19,2.93 -2.11,2.03l-7.22 -2.79c-2.83,-0.84 -4.57,0.2 -5.2,2.87l-2.57 6.08c-0.8,1.8 -1.63,1.61 -2.49,0.09l-8.87 -23.05 -7.26 22.54c-0.98,2.12 -2.02,2.24 -3.12,-0.17l-2.88 -7.26c-0.83,-1.33 -2.11,-1.85 -3.96,-1.35l-8.28 3.21c-2.11,0.76 -2.69,0.08 -2.19,-1.78l8.96 -25.48c0.96,0.41 2.07,0.67 3.34,0.78 0.59,0.05 1.25,0.49 1.44,1.05 1.73,5.11 5.54,6.34 11.01,3.64 0.72,-0.36 1.67,-0.38 2.36,-0.02 4.98,2.63 8.51,1.37 10.4,-3.38 0.3,-0.74 1.15,-1.33 1.95,-1.4 2.91,-0.27 4.95,-1.33 5.98,-3.23l1.5 3.47z"/>
  <polygon class="fil0 str0" points="39.08,20.15 37.14,23.69 33.17,24.37 35.87,27.49 35.45,31.55 39.17,29.86 42.88,31.46 42.46,27.49 45.16,24.54 41.28,23.44 "/>
  <path class="fil0 str0" d="M39.42 5.29c-0.43,0 -1,-0.31 -1.38,-0.5 -5.46,-2.7 -8.96,-0.89 -10.91,3.69 -0.2,0.48 -0.73,0.88 -1.24,0.92 -6.2,0.39 -8.41,3.94 -7.03,9.75 0.13,0.56 -0.07,1.29 -0.53,1.65 -4.79,3.93 -4.36,7.99 0.09,11.65 0.36,0.3 0.51,0.88 0.43,1.34 -1.08,6.11 1.6,9.24 6.95,9.7 0.59,0.05 1.25,0.49 1.44,1.05 1.73,5.11 5.54,6.34 11.01,3.64 0.72,-0.36 1.67,-0.38 2.36,-0.02 4.98,2.63 8.51,1.37 10.4,-3.38 0.3,-0.74 1.15,-1.33 1.95,-1.4 5.05,-0.46 7.5,-3.33 6.52,-8.8 -0.19,-1.02 0.15,-2.31 0.95,-3 4.13,-3.5 3.85,-6.94 0.05,-10.02 -0.83,-0.67 -1.09,-1.99 -0.95,-3.03 0.73,-5.2 -0.98,-8.79 -6.61,-8.99 -0.87,-0.03 -1.81,-0.7 -2.14,-1.52 -1.95,-4.83 -5.42,-6.15 -10.33,-3.24 -0.32,0.19 -0.65,0.51 -1.03,0.51z"/>
 </g>
</svg>
