<?xml version="1.0" encoding="UTF-8"?>
<!DOCTYPE svg PUBLIC "-//W3C//DTD SVG 1.1//EN" "http://www.w3.org/Graphics/SVG/1.1/DTD/svg11.dtd">
<!-- Creator: CorelDRAW 2017 -->
<svg xmlns="http://www.w3.org/2000/svg" xml:space="preserve" width="80px" height="80px" version="1.1" style="shape-rendering:geometricPrecision; text-rendering:geometricPrecision; image-rendering:optimizeQuality; fill-rule:evenodd; clip-rule:evenodd"
viewBox="0 0 80 80"
 xmlns:xlink="http://www.w3.org/1999/xlink">
 <defs>
  <style type="text/css">
   <![CDATA[
    .str0 {stroke:white;stroke-width:2.67;stroke-miterlimit:22.9256}
    .fil0 {fill:none}
    .fil1 {fill:white}
   ]]>
  </style>
 </defs>
 <g id="Слой_x0020_1">
  <metadata id="CorelCorpID_0Corel-Layer"/>
  <path class="fil0 str0" d="M13.77 26.64c3.16,-1.6 12.92,11.48 10.47,12.82 -2.5,2.23 -5.85,2.64 -6.96,5.08 0.8,4.73 7.54,13.54 14.95,15.33 2.71,-0.26 3.78,-4.36 5.67,-6.79 1.56,-2.64 13.9,6.8 12.56,9.48 -0.63,3.03 -4.06,6.01 -7.27,7.53 -9.45,2.49 -36.67,-14.51 -36.17,-35.9 0.45,-2.23 2.32,-4.9 6.75,-7.55z"/>
  <path class="fil0 str0" d="M50.78 10.16c10.35,0 18.74,8.39 18.74,18.74 0,7.43 -3.17,13.06 -8.17,15.57 -1.09,0.55 1.23,7.06 -10.35,9.54 -0.23,0.05 0.13,-6.57 -0.1,-6.58 -9.15,-0.28 -18.86,-6.49 -18.86,-18.53 0,-10.35 8.39,-18.74 18.74,-18.74z"/>
  <path class="fil1" d="M39.7 38.64c-0.18,0.89 1.52,1.87 2.23,0.17 0,-2.14 1.25,-5.97 4.55,-6.77 2.2,-0.54 5,-0.63 7.26,-0.25 2.55,0.42 5.14,2.03 5.63,6.12 -0.22,1.17 1.47,2.6 2.36,0.73 -0.09,-2.32 -1.16,-8.12 -8.2,-9.1 -2.1,-0.24 -4.21,-0.25 -6.33,0 -6.25,0.89 -7.94,7.58 -7.5,9.1z"/>
  <path class="fil1" d="M41.4 19.73l3.75 2.22c1.51,0.27 2.18,0.99 2.58,1.52 0.22,1.21 -0.62,1.61 -1.07,1.52l-1.84 -0.92c-1.34,-0.54 -2.49,0.34 -2.89,0.7 -1.16,0.26 -1.87,-0.58 -1.45,-1.42 0.25,-0.32 0.61,-0.68 1.28,-0.95l-1.43 -0.89c-0.14,-0.62 0.09,-1.34 1.07,-1.78z"/>
  <path class="fil1" d="M60.13 19.84l-3.76 2.23c-1.51,0.27 -2.18,0.98 -2.58,1.52 -0.22,1.2 0.63,1.61 1.07,1.52l1.84 -0.92c1.34,-0.54 2.49,0.34 2.89,0.69 1.16,0.27 1.87,-0.58 1.46,-1.41 -0.26,-0.33 -0.61,-0.68 -1.28,-0.95l1.43 -0.89c0.13,-0.63 -0.09,-1.34 -1.07,-1.79z"/>
 </g>
</svg>
