<?xml version="1.0" encoding="UTF-8"?>
<!DOCTYPE svg PUBLIC "-//W3C//DTD SVG 1.1//EN" "http://www.w3.org/Graphics/SVG/1.1/DTD/svg11.dtd">
<!-- Creator: CorelDRAW 2017 -->
<svg xmlns="http://www.w3.org/2000/svg" xml:space="preserve" width="80px" height="80px" version="1.1" style="shape-rendering:geometricPrecision; text-rendering:geometricPrecision; image-rendering:optimizeQuality; fill-rule:evenodd; clip-rule:evenodd"
viewBox="0 0 80 80"
 xmlns:xlink="http://www.w3.org/1999/xlink">
 <defs>
  <style type="text/css">
   <![CDATA[
    .str0 {stroke:#8292E2;stroke-width:2.67;stroke-miterlimit:22.9256}
    .fil0 {fill:none}
   ]]>
  </style>
 </defs>
 <g id="Слой_x0020_1">
  <metadata id="CorelCorpID_0Corel-Layer"/>
  <g id="_2248474066896">
   <path class="fil0 str0" d="M15.97 11.48c4.65,-2.39 19.14,16.8 15.54,18.79 -3.66,3.31 -8.59,3.94 -10.2,7.55 1.22,6.96 11.24,19.89 22.16,22.45 4,-0.4 5.54,-6.45 8.3,-10.06 2.28,-3.9 20.54,9.9 18.59,13.86 -0.89,4.47 -5.91,8.89 -10.63,11.16 -13.91,3.76 -54.17,-21.05 -53.63,-52.56 0.63,-3.29 3.37,-7.25 9.87,-11.19z"/>
   <path class="fil0 str0" d="M39.57 25.2c9.5,0.07 14.81,6.22 14.51,14.73"/>
   <path class="fil0 str0" d="M39.72 16.73c14.21,0.34 23.01,9.99 22.86,23.35"/>
   <path class="fil0 str0" d="M39.88 6.67c21.41,0.3 33.03,16.55 32.73,33.41"/>
  </g>
 </g>
</svg>
