<svg width="0" height="0" class="hidden"><symbol viewBox="0 0 62 60" fill="none" xmlns="http://www.w3.org/2000/svg" id="solution-icon-1"><path d="M41.352 52.322a1.797 1.797 0 102.541-2.54 1.797 1.797 0 00-2.54 2.54zm-20.326-2.541a1.797 1.797 0 102.54 2.541 1.797 1.797 0 00-2.54-2.54z" fill="#fff"/><path d="M55.935 0H5.39A5.396 5.396 0 000 5.39v28.746a5.396 5.396 0 005.39 5.39h13.003l2.636 2.637c-7.247 1.023-10.422 10.04-5.001 15.324 3.5 3.411 9.196 3.341 12.696-.159l3.735-3.735 3.736 3.735c3.497 3.497 9.192 3.573 12.696.158 5.388-5.25 2.283-14.294-5.002-15.324l2.637-2.636h9.41a5.396 5.396 0 005.39-5.39V5.39A5.396 5.396 0 0055.935 0zM37.541 43.43L35 40.887 50.028 25.86a5.392 5.392 0 01-1.054 6.136L37.54 43.43zM3.593 18.924v-6.349h54.14v6.349H3.592zM5.39 3.593h50.545c.991 0 1.797.806 1.797 1.797v3.593H3.593V5.39A1.8 1.8 0 015.39 3.593zM3.593 34.136V22.518H48.29L34.874 35.933H5.39a1.8 1.8 0 01-1.797-1.797zm27.688 5.39l-3.903 3.903-3.904-3.903h7.807zm-5.098 15.261c-2.116 2.117-5.547 2.173-7.647.126a5.387 5.387 0 01-.051-7.672 5.396 5.396 0 017.622 0c.7.7 1.838.703 2.541 0l3.811-3.812L35 45.97l-8.817 8.817zm20.2.126c-2.1 2.047-5.53 1.99-7.647-.126L35 51.052l3.811-3.812a5.396 5.396 0 017.623 0 5.386 5.386 0 01-.051 7.673zm9.552-18.98H50.12l1.396-1.397c3.342-3.34 3.45-8.55.62-12.018h5.597v11.618a1.8 1.8 0 01-1.797 1.797z" fill="#fff"/><path d="M14.493 26.95h-5.39a1.797 1.797 0 000 3.593h5.39a1.797 1.797 0 000-3.593zm12.697 0H21.8a1.797 1.797 0 000 3.593h5.39a1.797 1.797 0 100-3.593z" fill="#fff"/></symbol><symbol viewBox="0 0 60 60" fill="none" xmlns="http://www.w3.org/2000/svg" id="solution-icon-2"><path d="M60 44.121c0-8.756-7.123-15.879-15.88-15.879-8.755 0-15.878 7.123-15.878 15.88 0 4.99 2.315 9.45 5.927 12.362h-5.927v-5.273c0-.97-.787-1.758-1.758-1.758h-6.363l.592-10.664h.681c.938 0 1.711-.737 1.756-1.674l.88-18.471c.183-3.856-2.5-7.062-5.995-7.81C20.957 6.159 17.595 0 12.02 0 6.44 0 3.083 6.161 6.003 10.835c-3.492.746-6.178 3.95-5.994 7.809l.88 18.47a1.758 1.758 0 001.755 1.675h.681l1.08 19.433c.052.932.822 1.66 1.755 1.66h11.719c.933 0 1.703-.728 1.755-1.66l.292-5.253h4.8v5.273c0 .971.788 1.758 1.759 1.758l17.715-.001C52.919 59.956 60 52.85 60 44.12zM12.02 3.516a3.578 3.578 0 013.573 3.574 3.578 3.578 0 01-3.574 3.574A3.578 3.578 0 018.445 7.09a3.578 3.578 0 013.574-3.574zm4.196 52.851H7.823l-1.08-19.433a1.758 1.758 0 00-1.755-1.66H4.32l-.8-16.798a4.099 4.099 0 014.097-4.296h8.804a4.099 4.099 0 014.097 4.296l-.8 16.797h-.668c-.933 0-1.703.73-1.755 1.66l-.695 12.52h-4.178a1.758 1.758 0 000 3.516h3.982l-.188 3.398zm27.905.117c-6.817 0-12.363-5.546-12.363-12.363 0-6.817 5.546-12.363 12.363-12.363 6.817 0 12.363 5.546 12.363 12.363 0 6.817-5.546 12.363-12.363 12.363z" fill="#fff"/><path d="M47.273 43.291c-1.676-1.306-3.867-1.511-4.355-2.392-.171-.31.012-.82.385-1.07.531-.358 1.668-.217 2.068.151a1.758 1.758 0 002.383-2.584c-.544-.502-1.234-.86-1.981-1.07v-.142a1.758 1.758 0 00-3.516 0v.26c-2.54.953-3.648 3.931-2.414 6.159 1.297 2.342 4.018 2.486 5.269 3.461 1.105.862.42 1.98-.364 2.35-.724.34-2.177.13-3.05-.442a1.758 1.758 0 00-1.925 2.942c.68.446 1.551.805 2.484 1.005v.22a1.758 1.758 0 003.516 0v-.355c3.541-1.23 4.837-5.892 1.5-8.493z" fill="#fff"/></symbol><symbol viewBox="0 0 49 60" fill="none" xmlns="http://www.w3.org/2000/svg" id="solution-icon-3"><path d="M36.914 33.984h-5.273V31.62c3.535-2.432 5.859-6.505 5.859-11.111v-2.202l3.003 2.402a1.755 1.755 0 002.47-.274 1.758 1.758 0 00-.273-2.47l-4.144-3.316 4.144-3.314a1.758 1.758 0 10-2.197-2.746L37.5 10.991v-1.03C37.5 4.468 33.032 0 27.54 0h-7.032c-5.493 0-9.961 4.468-9.961 9.96v10.548c0 4.606 2.323 8.68 5.86 11.11v2.366h-5.274C4.994 33.984 0 38.98 0 45.117v13.125C0 59.213.787 60 1.758 60h44.531c.97 0 1.758-.787 1.758-1.758V45.117c0-6.138-4.994-11.133-11.133-11.133zM3.52 45h41.01l.002.117v3.867H3.516v-3.867c0-.04.002-.078.003-.117zm40.089-3.516H30.113a7.575 7.575 0 001.503-3.984h5.298a7.624 7.624 0 016.694 3.984zm-23.1-37.968h7.031a6.453 6.453 0 016.445 6.445v.586H14.062V9.96a6.453 6.453 0 016.446-6.445zm13.435 10.546a4.108 4.108 0 01-4.06 3.516 4.108 4.108 0 01-4.06-3.515h8.12zm-11.72 0a4.108 4.108 0 01-4.059 3.516 4.108 4.108 0 01-4.06-3.515h8.12zm-8.16 6.446v-.618a7.604 7.604 0 009.96-1.552 7.604 7.604 0 009.961 1.552v.618c0 5.492-4.468 9.96-9.96 9.96-5.493 0-9.962-4.468-9.962-9.96zm9.96 13.476c1.43 0 2.808-.224 4.102-.639v3.57a4.106 4.106 0 01-4.102 4.1 4.106 4.106 0 01-4.101-4.1v-3.57a13.43 13.43 0 004.101.64zM11.133 37.5h5.298a7.576 7.576 0 001.503 3.984H4.439a7.624 7.624 0 016.694-3.984zM3.516 56.484V52.5H44.53v3.984H3.516z" fill="#fff"/></symbol><symbol viewBox="0 0 61 60" fill="none" xmlns="http://www.w3.org/2000/svg" id="solution-icon-4"><path d="M58.47 56.47h-2.556l-4.807-9.612a1.764 1.764 0 00-1.578-.976H38.074l-8.24-24.593 18.409-6.154a1.765 1.765 0 00.972-2.55C44.467 4.293 34.702-.04 23.695 2.929l-.576-1.723a1.765 1.765 0 10-3.347 1.119l.576 1.723C9.78 8.291 4.57 17.617 5.765 27.11a1.766 1.766 0 002.31 1.453l18.412-6.155 7.865 23.474H17.157L2.913 35.627a1.765 1.765 0 10-2.062 2.864l13.663 9.838-2.623 8.142H1.765a1.765 1.765 0 000 3.529H58.47a1.765 1.765 0 000-3.53zM23.123 6.787c.012.002 2.096-.97 5.807 2.635 1.918 1.863 3.612 4.344 4.724 6.87l-13.228 4.422c-1.4-5.968-.217-12.951 2.697-13.927zm21.835 5.726l-7.945 2.656c-1.522-3.577-4.147-7.275-7.17-9.631 5.986-.207 11.517 2.132 15.115 6.975zM17.004 9.828c-1.006 3.728-.862 8.26.065 12.007L9.122 24.49c-.036-5.886 2.847-11.14 7.882-14.663zm31.434 39.584l3.53 7.059H41.622l-2.365-7.06h9.181zm-30.565 0h17.662L37.9 56.47H15.6l2.274-7.06z" fill="#fff"/></symbol><symbol viewBox="0 0 64 60" fill="none" xmlns="http://www.w3.org/2000/svg" id="help-icon-1"><path d="M63.657 37.054l-11.23-22.296a1.877 1.877 0 00-1.04-.92L37.54 8.798c.187-5.381-6.66-7.963-10.04-3.654L13.674.112a1.874 1.874 0 00-2.309.917L.2 23.199a1.96 1.96 0 00-.2.9c.033 7.197 5.898 13.043 13.102 13.043 7.207 0 13.072-5.85 13.101-13.05A1.946 1.946 0 0026 23.19L16.86 5.253l9.453 3.44a5.58 5.58 0 001.644 3.882 5.583 5.583 0 002.102 1.324v34.59h-.332c-5.315 0-9.64 4.325-9.64 9.64A1.87 1.87 0 0021.957 60H41.9a1.87 1.87 0 001.87-1.87c0-5.316-4.323-9.64-9.639-9.64H33.8V13.9a5.57 5.57 0 002.373-1.618l11.966 4.356L37.86 37.054c-.146.29-.207.63-.199.901.033 7.196 5.896 13.04 13.099 13.04s13.065-5.845 13.098-13.04a1.929 1.929 0 00-.2-.901zM13.045 6.01l8.235 16.159H4.908L13.045 6.01zm.057 27.39c-4.52 0-8.303-3.221-9.172-7.49h18.345c-.87 4.268-4.652 7.49-9.173 7.49zm21.03 18.831c2.598 0 4.81 1.69 5.593 4.027H24.132a5.909 5.909 0 015.594-4.027h4.406zM30.602 9.93a1.88 1.88 0 010-2.655c1.174-1.175 3.204-.34 3.204 1.328 0 1.668-2.03 2.502-3.204 1.327zm20.154 9.83l8.193 16.266H42.567l8.189-16.266zm.003 27.494c-4.52 0-8.3-3.22-9.17-7.487h18.339c-.87 4.266-4.65 7.487-9.17 7.487z" fill="#10269B"/></symbol><symbol viewBox="0 0 60 60" fill="none" xmlns="http://www.w3.org/2000/svg" id="help-icon-2"><path d="M30 0C13.431 0 0 13.431 0 30c0 16.569 13.431 30 30 30 16.569 0 30-13.431 30-30C60 13.431 46.569 0 30 0zm0 56.25C15.502 56.25 3.75 44.498 3.75 30S15.502 3.75 30 3.75 56.25 15.502 56.25 30 44.498 56.25 30 56.25z" fill="#10269B"/><path d="M26.1 25.087a1.875 1.875 0 00-.413-2.043l-7.5-7.5-2.643 2.662 4.312 4.294H15v3.75h9.375a1.875 1.875 0 001.725-1.163zm18.356-6.881l-2.662-2.662-7.5 7.5a1.875 1.875 0 001.331 3.206H45V22.5h-4.856l4.312-4.294zM30 30c-8.284 0-15 6.716-15 15h3.75c0-6.213 5.037-11.25 11.25-11.25S41.25 38.787 41.25 45H45c0-8.284-6.716-15-15-15z" fill="#10269B"/></symbol><symbol viewBox="0 0 60 60" fill="none" xmlns="http://www.w3.org/2000/svg" id="help-icon-3"><path d="M51.213 8.787C45.547 3.12 38.013 0 30 0 21.987 0 14.453 3.12 8.787 8.787 3.12 14.453 0 21.987 0 30c0 8.013 3.12 15.547 8.787 21.213C14.453 56.88 21.987 60 30 60c8.013 0 15.547-3.12 21.213-8.787C56.88 45.547 60 38.013 60 30c0-8.013-3.12-15.547-8.787-21.213zM30 56.484C15.396 56.484 3.516 44.604 3.516 30 3.516 15.396 15.396 3.516 30 3.516c14.604 0 26.484 11.88 26.484 26.484 0 14.604-11.88 26.484-26.484 26.484z" fill="#10269B"/><path d="M49.25 23.53a1.758 1.758 0 00-1.419-1.196l-11.232-1.632-5.023-10.178a1.758 1.758 0 00-3.152 0L23.4 20.702l-11.232 1.632a1.758 1.758 0 00-.974 2.998l8.127 7.922-1.918 11.187a1.758 1.758 0 002.55 1.853L30 41.012l10.046 5.282a1.756 1.756 0 001.851-.134 1.76 1.76 0 00.7-1.72l-1.92-11.186 8.128-7.922c.48-.467.652-1.165.445-1.802zm-11.688 7.852a1.758 1.758 0 00-.505 1.556l1.472 8.586-7.711-4.053a1.757 1.757 0 00-1.636 0l-7.711 4.054 1.472-8.587a1.758 1.758 0 00-.505-1.556l-6.239-6.081 8.622-1.253a1.758 1.758 0 001.323-.961L30 15.274l3.856 7.813c.256.518.75.878 1.323.961l8.621 1.253-6.238 6.08z" fill="#10269B"/></symbol><symbol viewBox="0 0 49 60" fill="none" xmlns="http://www.w3.org/2000/svg" id="service-icon-1"><path d="M17.063 28.622a1.759 1.759 0 00-2.486 0 1.755 1.755 0 000 2.483l5.47 5.464c.342.343.792.514 1.242.514.45 0 .9-.171 1.243-.514l10.937-10.927a1.755 1.755 0 000-2.483 1.759 1.759 0 00-2.486 0l-9.694 9.685-4.226-4.222z" fill="#8292E2"/><path d="M46.279 8.195A13.588 13.588 0 0134.232.937 1.758 1.758 0 0032.677 0H15.37c-.652 0-1.251.36-1.555.937A13.592 13.592 0 011.758 8.195C.787 8.195 0 8.98 0 9.951v17.883a33.343 33.343 0 006.502 19.852 33.398 33.398 0 0016.992 12.173 1.761 1.761 0 001.059 0 33.397 33.397 0 0016.992-12.173 33.343 33.343 0 006.502-19.852V9.95c0-.97-.798-1.756-1.768-1.756zM44.53 27.834c0 12.996-8.218 24.38-20.508 28.503C11.733 52.215 3.516 40.83 3.516 27.834V11.619a17.084 17.084 0 0012.876-8.107h15.263a17.085 17.085 0 0012.876 8.106v16.216z" fill="#8292E2"/><path d="M30.305 7.67a1.759 1.759 0 00-1.362-.646h-9.84c-.527 0-1.027.237-1.36.645a20.534 20.534 0 01-9.503 6.517 1.756 1.756 0 00-1.209 1.668v11.98c0 10.754 6.404 20.371 16.316 24.5a1.762 1.762 0 001.353 0c9.912-4.129 16.316-13.746 16.316-24.5V15.856c0-.759-.488-1.432-1.209-1.669a20.535 20.535 0 01-9.503-6.518zM37.5 27.833c0 9.085-5.265 17.234-13.477 20.964-8.21-3.73-13.476-11.879-13.476-20.964V17.09a24.031 24.031 0 009.371-6.553h8.21A24.032 24.032 0 0037.5 17.09v10.743z" fill="#8292E2"/></symbol><symbol viewBox="0 0 57 60" fill="none" xmlns="http://www.w3.org/2000/svg" id="service-icon-2"><path d="M54.14 37.152L32.423 21.797a27.466 27.466 0 001.41-3.305l.816.576a1.76 1.76 0 002.45-.42l4.062-5.733a1.755 1.755 0 00-.419-2.447L26.394.323a1.759 1.759 0 00-2.45.419l-4.062 5.733a1.755 1.755 0 00.419 2.448l.816.577c-4.323 3.442-8.457 9.294-10.178 14.317l-.793-.56a1.759 1.759 0 00-2.45.418L3.633 29.41a1.755 1.755 0 00.42 2.448L18.4 42.002a1.759 1.759 0 002.45-.42l4.062-5.733a1.755 1.755 0 00-.42-2.448l-.79-.56a26.01 26.01 0 002.65-2.428l21.694 15.339a5.274 5.274 0 007.35-1.257 5.262 5.262 0 00-1.257-7.343zm-34.29-5.93c-1.197.552-1.387 2.218-.256 3.018l1.434 1.014-2.031 2.866-11.478-8.116 2.03-2.866 1.436 1.014c1.133.802 2.64.064 2.763-1.244.023-.17.537-3.674 4.154-8.78 3.714-5.243 7.058-7.032 7.082-7.045a1.756 1.756 0 00.218-2.998l-1.435-1.014 2.03-2.867 11.48 8.116-2.032 2.867-1.434-1.014c-1.09-.772-2.585-.1-2.756 1.192-.006.037-.582 3.782-4.296 9.025-3.618 5.107-6.758 6.756-6.909 6.833zm32.678 11.245a1.758 1.758 0 01-2.45.418L28.653 27.736a38.383 38.383 0 002.021-2.873L52.11 40.019c.793.56.98 1.655.42 2.448zm-15.614 6.937h-1.758c-.97 0-1.758-.788-1.758-1.756 0-.97-.787-1.756-1.757-1.756H7.03c-.97 0-1.758.786-1.758 1.756 0 .968-.788 1.756-1.757 1.756H1.758C.787 49.404 0 50.19 0 51.16v7.024c0 .97.787 1.756 1.758 1.756h35.156c.97 0 1.758-.786 1.758-1.756V51.16c0-.97-.787-1.756-1.758-1.756zm-1.758 7.024H3.516v-3.512a5.282 5.282 0 004.972-3.512h21.696a5.282 5.282 0 004.972 3.512v3.512z" fill="#8292E2"/></symbol><symbol viewBox="0 0 67 60" fill="none" xmlns="http://www.w3.org/2000/svg" id="service-icon-3"><path d="M21.99 44.89a9.179 9.179 0 002.815-6.616c0-5.08-4.136-9.212-9.22-9.212-5.085 0-9.221 4.132-9.221 9.212a9.178 9.178 0 002.797 6.6C3.763 47.139 0 52.168 0 57.994a1.947 1.947 0 003.896 0c0-5.794 5.243-10.509 11.688-10.509 6.374 0 11.559 4.715 11.559 10.51a1.947 1.947 0 003.896 0c0-5.813-3.715-10.832-9.048-13.105zm-11.73-6.616a5.328 5.328 0 015.324-5.32 5.328 5.328 0 015.325 5.32 5.328 5.328 0 01-5.325 5.319 5.328 5.328 0 01-5.324-5.32zm25.195-9.342a1.947 1.947 0 003.896 0c0-5.794 5.185-10.509 11.558-10.509 6.445 0 11.688 4.715 11.688 10.51a1.947 1.947 0 003.897 0c0-5.827-3.764-10.856-9.162-13.121a9.178 9.178 0 002.798-6.6C60.13 4.132 55.993 0 50.91 0c-5.085 0-9.222 4.132-9.222 9.212a9.178 9.178 0 002.815 6.616c-5.334 2.273-9.048 7.291-9.048 13.104zm10.13-19.72a5.328 5.328 0 015.324-5.32 5.328 5.328 0 015.325 5.32 5.328 5.328 0 01-5.325 5.319 5.328 5.328 0 01-5.325-5.32zM8.182 24.65h18.96a3.899 3.899 0 003.897-3.892v-4.281c.166-.168 1.411-1.56 4.944-5.573 2.552-2.55 1.29-6.14-1.911-6.721-.402-.073 1.33-.031-25.89-.031a3.899 3.899 0 00-3.896 3.892v12.714a3.899 3.899 0 003.896 3.893zm0-16.606c15.156 0 22.985.003 25.152.003-.243.246-1.616 1.69-4.955 5.449-.798.825-1.236 1.87-1.236 2.98v4.282H8.182V8.044zM46.71 43.921a1.944 1.944 0 00-.537 2.699 1.95 1.95 0 002.7.537 1.944 1.944 0 00.539-2.699 1.949 1.949 0 00-2.702-.537zm7.484 1.999c.355 1.71 2.588 2.13 3.53.7.938-1.422-.259-3.315-2-2.99a1.947 1.947 0 00-1.53 2.29z" fill="#8292E2"/><path d="M66.493 51.896V39.181a3.899 3.899 0 00-3.896-3.892c-32.054 0-29.8-.037-30.175.032-3.202.581-4.463 4.171-1.911 6.721 3.532 4.012 4.777 5.405 4.944 5.573v4.281a3.899 3.899 0 003.896 3.892h23.246a3.899 3.899 0 003.896-3.892zm-3.896 0H39.351v-4.281c0-1.11-.438-2.156-1.236-2.981-3.34-3.76-4.712-5.203-4.956-5.45 2.167 0 14.282-.002 29.438-.002v12.714z" fill="#8292E2"/></symbol><symbol viewBox="0 0 53 60" fill="none" xmlns="http://www.w3.org/2000/svg" id="service-icon-4"><path d="M38.251 11.05L27.705.514A1.774 1.774 0 0026.462 0H1.758C.787 0 0 .786 0 1.756v49.168c0 .97.787 1.756 1.758 1.756H20.3v5.502c0 1.399 1.566 2.239 2.733 1.46l2.54-1.691 2.541 1.692c1.155.769 2.733-.05 2.733-1.461V52.68h6.161c.971 0 1.758-.787 1.758-1.756l-.001-38.659a1.754 1.754 0 00-.514-1.215zm-5.484-.512l-4.553.003.003-4.548 4.55 4.545zm-7.193 36.874a3.518 3.518 0 01-3.516-3.512 3.518 3.518 0 013.516-3.512 3.518 3.518 0 013.515 3.512 3.518 3.518 0 01-3.515 3.512zm.975 6.968a1.759 1.759 0 00-1.95 0l-.783.52v-4.198a7.06 7.06 0 003.515 0V54.9l-.782-.522zm4.298-5.212v-.63c3.96-4.488.81-11.662-5.273-11.662-6.085 0-9.234 7.175-5.274 11.662v.63H3.516V3.512h21.187l-.005 8.785c0 .951.54 1.51 1.758 1.757l8.794-.005v35.119h-4.403z" fill="#8292E2"/><path d="M11.85 17.87c-.395.185-1.367.086-1.981-.316a1.759 1.759 0 00-2.434.509c-.531.811-.303 1.9.51 2.43.483.317 1.09.59 1.755.767a1.756 1.756 0 003.508-.147v-.006c1.465-.625 2.473-1.985 2.641-3.49.157-1.405-.437-2.742-1.63-3.67-1.291-1.006-3.008-1.253-3.274-1.733-.016-.048.035-.22.173-.312.251-.17.928-.094 1.116.08a1.76 1.76 0 002.484-.1 1.755 1.755 0 00-.1-2.482 4.03 4.03 0 00-1.419-.827 1.757 1.757 0 00-3.503.116c-1.997.901-2.864 3.356-1.826 5.226.736 1.329 1.982 1.82 2.982 2.215.498.196 1.563.57 1.503 1.097-.027.248-.24.518-.505.643zm18.121-.31h-8.789a1.757 1.757 0 100 3.512h8.79a1.757 1.757 0 100-3.512zm0 7.024H8.906a1.757 1.757 0 100 3.512h21.065a1.757 1.757 0 100-3.512zm0 7.024H8.883a1.757 1.757 0 100 3.512h21.088a1.757 1.757 0 100-3.512zM47.55 7.03a5.27 5.27 0 00-5.268 5.262v31.735c0 .738.116.51 3.694 7.691.65 1.28 2.481 1.282 3.134.003 3.597-7.197 3.707-6.954 3.707-7.694V12.292A5.27 5.27 0 0047.55 7.03zm-1.752 17.554H49.3v15.81h-3.504v-15.81zm1.752-14.042c.965 0 1.751.785 1.751 1.75v8.78h-3.504v-8.78c0-.965.787-1.75 1.753-1.75zm-.004 36.507l-1.597-3.143h3.2l-1.603 3.143z" fill="#8292E2"/></symbol><symbol viewBox="0 0 60 60" fill="none" xmlns="http://www.w3.org/2000/svg" id="service-icon-5"><path d="M20.997 27.76h3.709a1.757 1.757 0 100-3.512h-3.709a1.757 1.757 0 100 3.513z" fill="#8292E2"/><path d="M43.607 28.334c-1.785-.175-3.177-1.746-3.177-3.597v-1.812c0-2.331-1.47-4.319-3.516-5.057v-3.82C36.914 6.303 30.606 0 22.852 0 15.097 0 8.789 6.302 8.789 14.049v3.808a5.277 5.277 0 00-3.516 4.966V24.6a3.518 3.518 0 01-3.515 3.512c-.971 0-1.758.786-1.758 1.756a8.755 8.755 0 003.529 7.022 8.769 8.769 0 00-3.517 7.02v14.274c0 .97.787 1.756 1.758 1.756h41.59c8.723 0 15.82-7.09 15.82-15.804 0-8.632-6.964-15.67-15.573-15.802zm-29.544-8.486c1.785-.877 3.924-2.311 5.224-4.514 3.954 3.555 9.018 4.908 12.354 5.423v1.486c0 4.842-3.943 8.78-8.79 8.78-4.846 0-8.788-3.938-8.788-8.78v-2.395zm4.29 13.837c1.393.549 2.911.85 4.499.85 1.659 0 3.242-.33 4.687-.927v8.535l-9.187.005v-8.463zm12.69-2.277c4.838-4.32 4.025-9.885 4.113-10.335.97 0 1.758.83 1.758 1.852.111 1.044-.496 3.626 1.493 6.2a15.876 15.876 0 00-7.352 5.09v-2.606a1.78 1.78 0 00-.013-.201zm-18.738-17.36c0-5.81 4.731-10.536 10.547-10.536 5.815 0 10.546 4.727 10.546 10.537v3.386c-3.378-.375-10.75-1.869-14.313-7.797a1.76 1.76 0 00-2.412-.601 1.755 1.755 0 00-.602 2.41c.212.352.433.69.664 1.018-.67 2.176-2.775 3.554-4.43 4.33v-2.747zM8.789 24.6v-1.777a1.76 1.76 0 011.758-1.756c.08.399-.747 6.168 4.292 10.497-.004.15-.002 2.32-.002 3.557H8.774a5.268 5.268 0 01-5.047-3.777c2.922-.853 5.062-3.554 5.062-6.744zM3.527 43.91a5.277 5.277 0 015.274-5.268h6.035v4.816c-3.321 6.231-3.515 6.105-3.515 6.889v6.08H3.527V43.91zm11.31 12.518v-5.633l2.801-5.135 9.974-.005c.417 4.34 2.598 8.173 5.816 10.773H14.837zm28.522 0c-6.784 0-12.304-5.514-12.304-12.292 0-6.779 5.52-12.293 12.304-12.293 6.785 0 12.305 5.515 12.305 12.293s-5.52 12.292-12.305 12.292z" fill="#8292E2"/><path d="M46.29 43.106c-1.467-1.142-3.414-1.374-3.786-2.044-.089-.16.013-.496.274-.67.387-.26 1.278-.153 1.567.113a1.76 1.76 0 002.484-.1 1.755 1.755 0 00-.1-2.481 4.419 4.419 0 00-1.682-.944 1.756 1.756 0 00-3.515.029v.088c-2.245.923-3.237 3.622-2.103 5.667.796 1.436 2.167 1.977 3.27 2.412.728.287 1.947.72 1.86 1.498-.041.365-.333.744-.711.922-.583.274-1.769.095-2.488-.375a1.759 1.759 0 00-2.434.508c-.531.812-.303 1.9.51 2.431.578.379 1.309.689 2.096.876v.03a1.757 1.757 0 003.516 0v-.167c1.588-.608 2.81-2.092 3.005-3.836.169-1.511-.474-2.954-1.762-3.957z" fill="#8292E2"/></symbol><symbol viewBox="0 0 46 60" fill="none" xmlns="http://www.w3.org/2000/svg" id="service-icon-6"><path d="M44.121 21.16h-5.303v-5.297C38.818 7.116 31.695 0 22.94 0 14.183 0 7.06 7.116 7.06 15.863v5.297H1.759C.787 21.16 0 21.947 0 22.916v35.268c0 .97.787 1.756 1.758 1.756H44.12c.97 0 1.758-.786 1.758-1.756V22.917c0-.97-.787-1.757-1.758-1.757zm-15.879 0H17.637v-5.297a5.306 5.306 0 015.302-5.297 5.306 5.306 0 015.303 5.297v5.297zm-17.666-5.297c0-6.81 5.546-12.35 12.363-12.35 6.818 0 12.364 5.54 12.364 12.35v5.297h-3.545v-5.297c0-4.858-3.956-8.81-8.819-8.81-4.862 0-8.818 3.952-8.818 8.81v5.297h-3.545v-5.297zm31.787 40.565H3.516V24.673h38.847v31.755z" fill="#8292E2"/><path d="M21.182 42.232v5.145a1.757 1.757 0 003.515 0v-5.145a5.292 5.292 0 003.53-4.981 5.291 5.291 0 00-5.288-5.283 5.291 5.291 0 00-5.288 5.283 5.291 5.291 0 003.53 4.981zm1.758-6.752c.977 0 1.772.794 1.772 1.77a1.774 1.774 0 01-3.545 0c0-.976.795-1.77 1.772-1.77z" fill="#8292E2"/></symbol></svg>